<?xml version="1.0" encoding="UTF-8"?>
<svg width="297px" height="185px" viewBox="0 0 297 185" version="1.1" xmlns="http://www.w3.org/2000/svg" xmlns:xlink="http://www.w3.org/1999/xlink">
    <!-- Generator: Sketch 49.3 (51167) - http://www.bohemiancoding.com/sketch -->
    <title>Group 2</title>
    <desc>Created with Sketch.</desc>
    <defs></defs>
    <g id="Page-1" stroke="none" stroke-width="1" fill="none" fill-rule="evenodd">
        <g id="iPhone-X" transform="translate(-16.000000, -90.000000)">
            <g id="Group-2" transform="translate(16.000000, 90.000000)">
                <path d="M234.795062,0 L234.795062,2.00499214 L234.637129,2.00499214 C234.585907,1.62023693 234.494136,1.31386237 234.361813,1.08585928 C234.229489,0.857856193 234.040967,0.676881456 233.79624,0.542929641 C233.551514,0.408977826 233.298254,0.342002924 233.036453,0.342002924 C232.740504,0.342002924 232.495781,0.432490292 232.302276,0.613467744 C232.108771,0.794445196 232.01202,1.0003574 232.01202,1.23121052 C232.01202,1.40791292 232.073201,1.56893769 232.195564,1.71428965 C232.371995,1.92804255 232.791724,2.21304214 233.454763,2.56929696 C233.995438,2.8600009 234.364657,3.08301308 234.562431,3.23834018 C234.760204,3.39366729 234.912445,3.57677952 235.019157,3.78768238 C235.125869,3.99858524 235.179225,4.21945992 235.179225,4.45031304 C235.179225,4.88921899 235.009199,5.26755594 234.669142,5.58533525 C234.329086,5.90311455 233.891572,6.06200182 233.356588,6.06200182 C233.188694,6.06200182 233.030762,6.04917684 232.882788,6.02352649 C232.794572,6.0092763 232.611741,5.95726387 232.334289,5.86748766 C232.056838,5.77771144 231.881121,5.73282401 231.807133,5.73282401 C231.735992,5.73282401 231.679791,5.75419898 231.638529,5.79694955 C231.597267,5.83970013 231.566676,5.92805001 231.546757,6.06200182 L231.388823,6.06200182 L231.388823,4.07410983 L231.546757,4.07410983 C231.620744,4.49021546 231.720341,4.80157751 231.84555,5.00820531 C231.970759,5.21483311 232.162127,5.38654536 232.419659,5.52334722 C232.677191,5.66014907 232.959619,5.72854897 233.26695,5.72854897 C233.622658,5.72854897 233.903662,5.63449911 234.109973,5.44639656 C234.316283,5.25829401 234.419437,5.03599433 234.419437,4.77949086 C234.419437,4.63698893 234.38031,4.49306414 234.302054,4.34771217 C234.223798,4.2023602 234.102148,4.06698539 233.9371,3.94158369 C233.826119,3.85608254 233.523061,3.6743953 233.027916,3.39651653 C232.532771,3.11863777 232.180626,2.89705059 231.97147,2.73174835 C231.762313,2.56644611 231.60367,2.38404638 231.495535,2.18454367 C231.3874,1.98504097 231.333333,1.76559129 231.333333,1.52618805 C231.333333,1.11008241 231.492688,0.751695429 231.811402,0.451016355 C232.130116,0.150337282 232.535616,0 233.027916,0 C233.335247,0 233.66107,0.0755248904 234.005395,0.226576937 C234.164752,0.297827902 234.277154,0.33345285 234.342604,0.33345285 C234.416592,0.33345285 234.477061,0.311365383 234.524014,0.267189784 C234.570968,0.223014186 234.608672,0.133951815 234.637129,0 L234.795062,0 Z M239.225734,5.92947569 L236.989056,1.05165899 L236.989056,4.9248421 C236.989056,5.28109693 237.027471,5.5033966 237.104304,5.5917478 C237.209594,5.71144942 237.376062,5.77129934 237.603715,5.77129934 L237.808602,5.77129934 L237.808602,5.92947569 L235.793884,5.92947569 L235.793884,5.77129934 L235.998771,5.77129934 C236.243497,5.77129934 236.41708,5.69719944 236.519524,5.54899743 C236.582129,5.4577962 236.61343,5.2497465 236.61343,4.9248421 L236.61343,1.13715972 C236.61343,0.880656246 236.584974,0.695406515 236.528061,0.58140497 C236.488222,0.49875385 236.414947,0.429641451 236.308235,0.374065698 C236.201522,0.318489945 236.030074,0.290702485 235.793884,0.290702485 L235.793884,0.132526133 L237.432976,0.132526133 L239.533064,4.66833991 L241.599003,0.132526133 L243.238095,0.132526133 L243.238095,0.290702485 L243.037477,0.290702485 C242.789905,0.290702485 242.614899,0.364802377 242.512455,0.513004385 C242.449851,0.604205621 242.418549,0.812255319 242.418549,1.13715972 L242.418549,4.9248421 C242.418549,5.28109693 242.458388,5.5033966 242.538066,5.5917478 C242.643356,5.71144942 242.809824,5.77129934 243.037477,5.77129934 L243.238095,5.77129934 L243.238095,5.92947569 L240.779457,5.92947569 L240.779457,5.77129934 L240.984343,5.77129934 C241.231916,5.77129934 241.405498,5.69719944 241.505097,5.54899743 C241.567701,5.4577962 241.599003,5.2497465 241.599003,4.9248421 L241.599003,1.05165899 L239.366593,5.92947569 L239.225734,5.92947569 Z" id="SM" fill="#000000"></path>
                <g id="Group-3">
                    <g id="Group" transform="translate(88.476190, 0.000000)">
                        <path d="M134.14966,0.153022454 C127.789116,0.358497363 115.929303,0.952091546 113.940476,1.16464681 C112.191327,1.35162609 111.751437,1.54872017 111.186505,2.39865225 C110.648605,3.20783614 110.589481,3.89506446 111.000315,4.5661091 C111.388019,5.19958449 114.272959,8.23720302 117.034014,10.9190696 L119.419218,13.2359365 L94.295068,38.2989626 C80.4753401,52.0849996 68.9595748,63.5115431 68.7011054,63.694332 L68.2312925,64.0266754 L63.2801871,59.1426726 C60.5551276,56.4544481 54.2670068,50.2263331 49.2942177,45.2898779 C39.4931973,35.5605976 37.1491922,33.3500806 36.1394558,32.8842218 C35.6291667,32.648836 35.2070578,32.5841013 34.1806973,32.5841013 C33.0097789,32.5841013 32.8133248,32.623838 32.3086735,32.9622503 C30.9184609,33.8946902 10.1186139,54.4320664 3.43744048,61.4690763 C0.803307823,64.2434211 0.392185374,64.7399132 0.206862245,65.3704986 C-0.0777721088,66.3396408 -0.057244898,67.1333635 0.280586735,68.2170919 C0.834821429,69.9944066 3.27163265,72.582639 4.82823129,73.0471973 C5.65221088,73.2931314 7.49055272,73.3288222 8.2542517,73.1138105 C9.00306122,72.9028447 12.6488095,69.4301453 24.3290816,57.8017393 L34.4192177,47.7562993 L43.7721088,57.1775117 C53.6988946,67.1767127 62.2392262,75.5915026 64.5739796,77.6734172 C66.2942177,79.2073987 66.9201531,79.5190789 68.3035714,79.5307832 C69.9263776,79.5445104 70.3996599,79.2312407 74.2304422,75.6091313 C76.0602551,73.8789227 87.1105442,62.9465594 98.8052721,51.2964788 C110.5,39.6463982 121.859065,28.3506246 124.066752,26.1756539 L128.078231,22.2236576 L128.475765,22.5126518 C128.694481,22.6715987 130.528486,24.4074426 132.552296,26.370725 C134.576105,28.3340074 136.501182,30.0958609 136.831207,30.2865971 C137.383997,30.6062247 137.488946,30.6211079 138.168367,30.4761773 C139.006803,30.2975788 139.547883,29.9252098 139.871548,29.3040166 C140.512517,28.0742016 140.799464,24.564511 141.451565,9.98475123 C141.800527,2.18190656 141.763087,1.55319958 140.895884,0.650237055 C140.447032,0.182933358 140.409014,0.172096074 138.992347,0.108372843 C138.198869,0.0726820531 136.014456,0.0927671532 134.14966,0.153022454" id="Fill-1" fill="#006666"></path>
                        <polyline id="Fill-2" fill="#9B9B9B" points="120.091412 38.4001105 112.032313 46.4558252 112.032313 103.893432 132.559524 103.893432 132.559524 34.7515582 128.15051 30.3443959 120.091412 38.4001105"></polyline>
                        <path d="M96.6007653,61.8808931 L86.4455782,72.031816 L86.4455782,103.893432 L106.972789,103.893432 L106.958333,79.0038022 C106.950383,65.3199246 106.901522,53.5775104 106.849915,52.9220714 L106.755952,51.7299702 L96.6007653,61.8808931" id="Fill-3" fill="#9B9B9B"></path>
                        <polyline id="Fill-4" fill="#9B9B9B" points="35.7057823 80.7377677 35.7057823 103.893432 56.2329932 103.893432 56.2329932 78.1006952 35.7057823 57.5821037 35.7057823 80.7377677"></polyline>
                        <path d="M26.4516241,64.0989239 C21.4801361,69.0840747 14.8726871,75.4920886 13.2559524,76.8964562 C12.5331633,77.5242962 11.5640476,78.2071896 11.0442177,78.4547131 L10.1190476,78.8954294 L10.1913265,104.254675 L19.587585,104.211325 C24.7627551,104.187483 29.3085204,104.122604 29.7066327,104.066828 L30.4294218,103.96568 L30.4655612,82.1104904 C30.4855102,70.0883297 30.4529847,60.2553004 30.3932823,60.2553004 C30.3337245,60.2553004 28.5556633,61.9892659 26.4516241,64.0989239" id="Fill-5" fill="#9B9B9B"></path>
                        <path d="M78.5960884,79.8453535 C74.5195578,83.7798656 73.1039031,84.7203974 70.4141156,85.2811907 C67.5089371,85.8869227 64.8486395,85.2842252 61.6105442,83.2869859 L61.0034014,82.9124494 L61.0034014,103.893432 L81.3860544,103.893432 L81.3860544,90.5996964 C81.3860544,83.2881419 81.3503486,77.305961 81.3065476,77.305961 C81.2628912,77.305961 80.0416667,78.4500892 78.5960884,79.8453535" id="Fill-6" fill="#9B9B9B"></path>
                    </g>
                    <path d="M0.0182291667,158.213642 L0.0182291667,128.662109 C0.0182291667,126.147073 0.583234677,124.260824 1.71326265,123.003305 C2.84329062,121.745787 4.32904585,121.117037 6.17057292,121.117037 C8.09580576,121.117037 9.62341325,121.745787 10.7534412,123.003305 C11.8834692,124.260824 12.4484747,126.147073 12.4484747,128.662109 L12.4484747,158.884315 C12.4484747,162.321532 12.8321204,165.192822 13.5994234,167.498272 C14.3667263,169.803722 15.7269248,171.592166 17.6800595,172.863657 C19.6331943,174.135148 22.3675419,174.770883 25.8831845,174.770883 C30.7381195,174.770883 34.1700048,173.478453 36.1789435,170.893555 C38.1878821,168.308656 39.1923363,164.389449 39.1923363,159.135817 L39.1923363,128.662109 C39.1923363,126.119128 39.7503664,124.225893 40.8664435,122.982347 C41.9825205,121.738801 43.4752511,121.117037 45.3446801,121.117037 C47.214109,121.117037 48.7277658,121.738801 49.8856957,122.982347 C51.0436256,124.225893 51.6225818,126.119128 51.6225818,128.662109 L51.6225818,158.213642 C51.6225818,163.020156 51.1552316,167.030182 50.2205171,170.24384 C49.2858026,173.457498 47.5210323,176.279886 44.9261533,178.711088 C42.6939993,180.779007 40.0991591,182.288006 37.1415551,183.238131 C34.183951,184.188256 30.7241642,184.663311 26.7620908,184.663311 C22.0466654,184.663311 17.9869962,184.153325 14.5829613,183.133338 C11.1789264,182.113351 8.40272652,180.534491 6.25427827,178.39671 C4.10583003,176.258929 2.5293949,173.520374 1.5249256,170.180965 C0.520456287,166.841555 0.0182291667,162.852487 0.0182291667,158.213642 Z M62.797247,171.66902 L76.5249256,151.590745 L64.9735863,133.734075 C63.8854112,132.001494 63.0692922,130.513453 62.5252046,129.269907 C61.9811171,128.026361 61.7090774,126.831736 61.7090774,125.685998 C61.7090774,124.512314 62.2322306,123.457412 63.2785528,122.521259 C64.324875,121.585106 65.601369,121.117037 67.1080729,121.117037 C68.8379923,121.117037 70.18424,121.627023 71.1468564,122.64701 C72.1094728,123.666997 73.4417698,125.560233 75.1437872,128.326773 L84.3513765,143.249249 L94.186756,128.326773 C94.9959118,127.069255 95.6864741,125.993394 96.2584635,125.099159 C96.830453,124.204923 97.3815078,123.464396 97.9116443,122.877554 C98.4417809,122.290712 99.0346879,121.850587 99.6903832,121.557166 C100.346078,121.263746 101.106394,121.117037 101.971354,121.117037 C103.533862,121.117037 104.810356,121.585106 105.800874,122.521259 C106.791393,123.457412 107.286644,124.568203 107.286644,125.853666 C107.286644,127.725971 106.212436,130.268914 104.063988,133.482572 L91.968564,151.590745 L104.984747,171.66902 C106.156628,173.429546 107.007624,174.889643 107.53776,176.049354 C108.067897,177.209065 108.332961,178.305884 108.332961,179.339844 C108.332961,180.317914 108.095799,181.212135 107.621466,182.022536 C107.147133,182.832937 106.477497,183.475659 105.612537,183.950721 C104.747578,184.425784 103.771025,184.663311 102.68285,184.663311 C101.510969,184.663311 100.520465,184.418798 99.7113095,183.929763 C98.9021537,183.440728 98.2464683,182.832936 97.7442336,182.10637 C97.241999,181.379804 96.3072985,179.96861 94.9401042,177.872746 L84.1421131,160.854417 L72.6744792,178.375751 C71.7816176,179.772994 71.1468583,180.751049 70.7701823,181.309946 C70.3935063,181.868843 69.9401068,182.413759 69.4099702,182.944712 C68.8798337,183.475664 68.2520498,183.89483 67.5265997,184.202224 C66.8011496,184.509617 65.9501537,184.663311 64.9735863,184.663311 C63.4668823,184.663311 62.2182899,184.202228 61.2277716,183.280048 C60.2372532,182.357868 59.7420015,181.016535 59.7420015,179.25601 C59.7420015,177.188091 60.7604065,174.65912 62.797247,171.66902 Z" id="UX" fill="#006666"></path>
                    <path d="M152.594494,169.698918 C152.594494,172.856686 151.827203,175.56031 150.292597,177.809871 C148.757991,180.059431 146.490993,181.764042 143.491536,182.923753 C140.492079,184.083464 136.843957,184.663311 132.547061,184.663311 C128.445478,184.663311 124.929888,184.034562 122.000186,182.777043 C119.070484,181.519525 116.908117,179.947651 115.513021,178.061373 C114.117925,176.175096 113.420387,174.28186 113.420387,172.381611 C113.420387,171.124092 113.866811,170.048232 114.759673,169.153996 C115.652534,168.259761 116.782545,167.81265 118.14974,167.81265 C119.349522,167.81265 120.270272,168.106067 120.912016,168.692909 C121.553761,169.279751 122.167594,170.104111 122.753534,171.166016 C123.925415,173.20599 125.327466,174.728961 126.959728,175.734976 C128.591991,176.740991 130.817136,177.24399 133.635231,177.24399 C135.923189,177.24399 137.799565,176.734004 139.264416,175.714017 C140.729267,174.69403 141.461682,173.52735 141.461682,172.213942 C141.461682,170.201913 140.701365,168.73483 139.180711,167.81265 C137.660056,166.89047 135.155895,166.010221 131.668155,165.171875 C127.733983,164.193805 124.532285,163.166847 122.062965,162.090971 C119.593645,161.015094 117.619613,159.596914 116.140811,157.836388 C114.662009,156.075863 113.922619,153.910169 113.922619,151.339243 C113.922619,149.047765 114.606206,146.882071 115.9734,144.842097 C117.340595,142.802123 119.356478,141.17436 122.021112,139.958759 C124.685746,138.743158 127.901395,138.135367 131.668155,138.135367 C134.625759,138.135367 137.283377,138.442755 139.64109,139.057542 C141.998803,139.672329 143.965859,140.49669 145.542318,141.530649 C147.118776,142.564609 148.318541,143.71033 149.141648,144.967849 C149.964755,146.225367 150.376302,147.454922 150.376302,148.65655 C150.376302,149.969958 149.936853,151.045819 149.057943,151.884165 C148.179032,152.72251 146.93044,153.141677 145.312128,153.141677 C144.140247,153.141677 143.142768,152.806343 142.319661,152.135667 C141.496555,151.464991 140.554879,150.458991 139.494606,149.117638 C138.629646,147.999844 137.611241,147.105622 136.43936,146.434946 C135.267479,145.764269 133.677093,145.428936 131.668155,145.428936 C129.603412,145.428936 127.88747,145.869061 126.520275,146.749324 C125.153081,147.629587 124.469494,148.726406 124.469494,150.039814 C124.469494,151.241442 124.971721,152.226484 125.97619,152.994967 C126.98066,153.76345 128.333883,154.399186 130.0359,154.902194 C131.737918,155.405201 134.081644,156.019978 137.06715,156.746544 C140.610695,157.612835 143.505476,158.646779 145.751581,159.848407 C147.997686,161.050036 149.699678,162.468216 150.857608,164.10299 C152.015538,165.737764 152.594494,167.603054 152.594494,169.698918 Z M194.154204,164.207782 L171.804874,164.207782 C171.832775,166.806654 172.355929,169.098097 173.374349,171.082181 C174.392769,173.066266 175.745992,174.561293 177.434059,175.567308 C179.122125,176.573322 180.984551,177.076322 183.021391,177.076322 C184.388586,177.076322 185.637178,176.915642 186.767206,176.594276 C187.897234,176.27291 188.992368,175.76991 190.052641,175.085261 C191.112915,174.400613 192.089467,173.667071 192.982329,172.884615 C193.87519,172.10216 195.033103,171.040271 196.456101,169.698918 C197.042042,169.195911 197.879087,168.944411 198.967262,168.944411 C200.139143,168.944411 201.087794,169.265772 201.813244,169.908504 C202.538694,170.551235 202.901414,171.459429 202.901414,172.633113 C202.901414,173.667072 202.496842,174.875669 201.687686,176.258939 C200.87853,177.642209 199.657839,178.96957 198.025577,180.241061 C196.393314,181.512551 194.342553,182.567454 191.873233,183.405799 C189.403913,184.244145 186.564934,184.663311 183.356213,184.663311 C176.018006,184.663311 170.312148,182.567479 166.238467,178.375751 C162.164786,174.184024 160.127976,168.497332 160.127976,161.315505 C160.127976,157.934178 160.630203,154.797415 161.634673,151.905123 C162.639142,149.012831 164.103971,146.532763 166.029204,144.464844 C167.954437,142.396925 170.326065,140.811078 173.144159,139.707257 C175.962254,138.603435 179.087222,138.051532 182.519159,138.051532 C186.983467,138.051532 190.812949,138.994657 194.007719,140.880934 C197.20249,142.767212 199.595044,145.205364 201.185454,148.195463 C202.775864,151.185562 203.571057,154.231505 203.571057,157.333383 C203.571057,160.211703 202.747962,162.076994 201.101749,162.929312 C199.455535,163.78163 197.13971,164.207782 194.154204,164.207782 Z M171.804874,157.710637 L192.521949,157.710637 C192.24293,153.798358 191.189648,150.871179 189.362072,148.929011 C187.534496,146.986844 185.127991,146.015775 182.142485,146.015775 C179.296489,146.015775 176.959738,147.000816 175.132161,148.970928 C173.304585,150.94104 172.1955,153.854248 171.804874,157.710637 Z M213.197173,177.705078 L213.197173,128.07527 C213.197173,125.783793 213.706375,124.051238 214.724795,122.877554 C215.743216,121.70387 217.117365,121.117037 218.847284,121.117037 C220.577204,121.117037 221.972279,121.696884 223.032552,122.856596 C224.092825,124.016307 224.622954,125.755848 224.622954,128.07527 L224.622954,177.705078 C224.622954,180.024501 224.08585,181.764042 223.011626,182.923753 C221.937402,184.083464 220.549302,184.663311 218.847284,184.663311 C217.173169,184.663311 215.81297,184.062506 214.766648,182.860877 C213.720326,181.659249 213.197173,179.940666 213.197173,177.705078 Z M236.425409,177.705078 L236.425409,128.07527 C236.425409,125.783793 236.934612,124.051238 237.953032,122.877554 C238.971452,121.70387 240.345601,121.117037 242.075521,121.117037 C243.80544,121.117037 245.200516,121.696884 246.260789,122.856596 C247.321062,124.016307 247.85119,125.755848 247.85119,128.07527 L247.85119,177.705078 C247.85119,180.024501 247.314086,181.764042 246.239862,182.923753 C245.165638,184.083464 243.777538,184.663311 242.075521,184.663311 C240.401405,184.663311 239.041207,184.062506 237.994885,182.860877 C236.948562,181.659249 236.425409,179.940666 236.425409,177.705078 Z M296.44215,169.698918 C296.44215,172.856686 295.674859,175.56031 294.140253,177.809871 C292.605647,180.059431 290.33865,181.764042 287.339193,182.923753 C284.339736,184.083464 280.691614,184.663311 276.394717,184.663311 C272.293134,184.663311 268.777544,184.034562 265.847842,182.777043 C262.91814,181.519525 260.755773,179.947651 259.360677,178.061373 C257.965581,176.175096 257.268043,174.28186 257.268043,172.381611 C257.268043,171.124092 257.714467,170.048232 258.607329,169.153996 C259.50019,168.259761 260.630201,167.81265 261.997396,167.81265 C263.197179,167.81265 264.117928,168.106067 264.759673,168.692909 C265.401417,169.279751 266.01525,170.104111 266.60119,171.166016 C267.773071,173.20599 269.175122,174.728961 270.807385,175.734976 C272.439647,176.740991 274.664792,177.24399 277.482887,177.24399 C279.770845,177.24399 281.647221,176.734004 283.112072,175.714017 C284.576923,174.69403 285.309338,173.52735 285.309338,172.213942 C285.309338,170.201913 284.549022,168.73483 283.028367,167.81265 C281.507712,166.89047 279.003552,166.010221 275.515811,165.171875 C271.58164,164.193805 268.379942,163.166847 265.910621,162.090971 C263.441301,161.015094 261.467269,159.596914 259.988467,157.836388 C258.509665,156.075863 257.770275,153.910169 257.770275,151.339243 C257.770275,149.047765 258.453862,146.882071 259.821057,144.842097 C261.188251,142.802123 263.204135,141.17436 265.868769,139.958759 C268.533402,138.743158 271.749051,138.135367 275.515811,138.135367 C278.473415,138.135367 281.131034,138.442755 283.488746,139.057542 C285.846459,139.672329 287.813515,140.49669 289.389974,141.530649 C290.966433,142.564609 292.166198,143.71033 292.989304,144.967849 C293.812411,146.225367 294.223958,147.454922 294.223958,148.65655 C294.223958,149.969958 293.78451,151.045819 292.905599,151.884165 C292.026688,152.72251 290.778096,153.141677 289.159784,153.141677 C287.987903,153.141677 286.990425,152.806343 286.167318,152.135667 C285.344211,151.464991 284.402535,150.458991 283.342262,149.117638 C282.477302,147.999844 281.458897,147.105622 280.287016,146.434946 C279.115136,145.764269 277.52475,145.428936 275.515811,145.428936 C273.451069,145.428936 271.735126,145.869061 270.367932,146.749324 C269.000737,147.629587 268.31715,148.726406 268.31715,150.039814 C268.31715,151.241442 268.819377,152.226484 269.823847,152.994967 C270.828316,153.76345 272.181539,154.399186 273.883557,154.902194 C275.585574,155.405201 277.929301,156.019978 280.914807,156.746544 C284.458351,157.612835 287.353132,158.646779 289.599237,159.848407 C291.845342,161.050036 293.547334,162.468216 294.705264,164.10299 C295.863194,165.737764 296.44215,167.603054 296.44215,169.698918 Z" id="sells" fill="#006666"></path>
                </g>
            </g>
        </g>
    </g>
</svg>