<?xml version="1.0" encoding="UTF-8"?>
<svg width="196px" height="51px" viewBox="0 0 196 51" version="1.1" xmlns="http://www.w3.org/2000/svg" xmlns:xlink="http://www.w3.org/1999/xlink">
    <!-- Generator: Sketch 49.3 (51167) - http://www.bohemiancoding.com/sketch -->
    <title>Group 2</title>
    <desc>Created with Sketch.</desc>
    <defs></defs>
    <g id="Page-1" stroke="none" stroke-width="1" fill="none" fill-rule="evenodd">
        <g id="iPhone-X" transform="translate(-101.000000, -74.000000)">
            <g id="Group-2" transform="translate(101.000000, 74.000000)">
                <g id="Group" transform="translate(127.000000, 7.000000)">
                    <path d="M56.3428571,0.0641707064 C53.6714286,0.150337604 48.6903071,0.399264197 47.855,0.488400277 C47.1203571,0.566810942 46.9356036,0.649463296 46.6983321,1.00588643 C46.4724143,1.34522161 46.4475821,1.63341413 46.6201321,1.91481994 C46.7829679,2.18047091 47.9946429,3.45431094 49.1542857,4.57896468 L50.1560714,5.55055402 L39.6039286,16.0608553 C33.7996429,21.8420966 28.9630214,26.6338729 28.8544643,26.7105263 L28.6571429,26.8498961 L26.5776786,24.8017659 C25.4331536,23.674446 22.7921429,21.0626558 20.7035714,18.9925294 C16.5871429,14.9125087 15.6026607,13.9855177 15.1785714,13.7901575 C14.96425,13.6914474 14.7869643,13.6643006 14.3558929,13.6643006 C13.8641071,13.6643006 13.7815964,13.6809643 13.5696429,13.8228792 C12.9857536,14.2139024 4.24981786,22.8263504 1.443725,25.7773546 C0.337389286,26.9407895 0.164717857,27.1489958 0.0868821429,27.4134349 C-0.0326642857,27.8198494 -0.0240428571,28.1527008 0.117846429,28.6071676 C0.350625,29.3524931 1.37408571,30.4378809 2.02785714,30.6326956 C2.37392857,30.7358293 3.14603214,30.7507964 3.46678571,30.6606302 C3.78128571,30.5721607 5.3125,29.1158674 10.2182143,24.2394391 L14.4560714,20.0268352 L18.3842857,23.9776662 C22.5535357,28.1708795 26.140475,31.6996624 27.1210714,32.5727233 C27.8435714,33.2160059 28.1064643,33.3467105 28.6875,33.3516188 C29.3690786,33.3573753 29.5678571,33.2260042 31.1767857,31.7070551 C31.9453071,30.9814837 36.5864286,26.3969443 41.4982143,21.5114266 C46.41,16.6259089 51.1808071,11.8889716 52.1080357,10.9768871 L53.7928571,9.31959834 L53.9598214,9.44078947 C54.0516821,9.5074446 54.8219643,10.2353792 55.6719643,11.0586911 C56.5219643,11.8820031 57.3304964,12.6208449 57.4691071,12.700831 C57.7012786,12.8348684 57.7453571,12.8411098 58.0307143,12.7803324 C58.3828571,12.7054363 58.6101107,12.5492815 58.74605,12.2887812 C59.0152571,11.7730523 59.135775,10.3012465 59.4096571,4.18715374 C59.5562214,0.914993075 59.5404964,0.651341759 59.1762714,0.272680055 C58.9877536,0.0767139889 58.9717857,0.0721693213 58.3767857,0.0454466759 C58.043525,0.0304795706 57.1260714,0.0389023546 56.3428571,0.0641707064" id="Fill-1" fill="#006666"></path>
                    <polyline id="Fill-2" fill="#9B9B9B" points="50.4383929 16.1032722 47.0535714 19.4814751 47.0535714 43.5682133 55.675 43.5682133 55.675 14.5732341 53.8232143 12.7250693 50.4383929 16.1032722"></polyline>
                    <path d="M40.5723214,25.9500519 L36.3071429,30.2068906 L36.3071429,43.5682133 L44.9285714,43.5682133 L44.9225,33.1306267 C44.9191607,27.3922265 44.8986393,22.4679882 44.8769643,22.1931267 L44.8375,21.6932133 L40.5723214,25.9500519" id="Fill-3" fill="#9B9B9B"></path>
                    <polyline id="Fill-4" fill="#9B9B9B" points="14.9964286 33.8577735 14.9964286 43.5682133 23.6178571 43.5682133 23.6178571 32.7519044 14.9964286 24.1473338 14.9964286 33.8577735"></polyline>
                    <path d="M11.1096821,26.8801939 C9.02165714,28.970741 6.24652857,31.6579726 5.5675,32.246901 C5.26392857,32.5101887 4.8569,32.7965634 4.63857143,32.9003636 L4.25,33.0851801 L4.28035714,43.7197022 L8.22678571,43.7015235 C10.4003571,43.6915253 12.3095786,43.6643179 12.4767857,43.640928 L12.7803571,43.5985111 L12.7955357,34.4334314 C12.8039143,29.3918802 12.7902536,25.2683518 12.7651786,25.2683518 C12.7401643,25.2683518 11.9933786,25.9954986 11.1096821,26.8801939" id="Fill-5" fill="#9B9B9B"></path>
                    <path d="M33.0103571,33.4835353 C31.2982143,35.133492 30.7036393,35.5279086 29.5739286,35.76308 C28.3537536,36.0170966 27.2364286,35.7643525 25.8764286,34.9268006 L25.6214286,34.7697368 L25.6214286,43.5682133 L34.1821429,43.5682133 L34.1821429,37.9934211 C34.1821429,34.9272853 34.1671464,32.4186288 34.14875,32.4186288 C34.1304143,32.4186288 33.6175,32.8984245 33.0103571,33.4835353" id="Fill-6" fill="#9B9B9B"></path>
                </g>
                <path d="M189.750977,0.936523438 L189.750977,2.31054688 L189.642578,2.31054688 C189.607422,2.04687368 189.544434,1.83691484 189.453613,1.68066406 C189.362793,1.52441328 189.233399,1.40039108 189.06543,1.30859375 C188.89746,1.21679642 188.723634,1.17089844 188.543945,1.17089844 C188.340819,1.17089844 188.172852,1.23290954 188.040039,1.35693359 C187.907226,1.48095765 187.84082,1.62206952 187.84082,1.78027344 C187.84082,1.90136779 187.882812,2.01171825 187.966797,2.11132812 C188.087891,2.25781323 188.375974,2.45312378 188.831055,2.69726562 C189.20215,2.89648537 189.455566,3.04931587 189.591309,3.15576172 C189.727051,3.26220756 189.831543,3.38769459 189.904785,3.53222656 C189.978028,3.67675854 190.014648,3.82812421 190.014648,3.98632812 C190.014648,4.28711088 189.89795,4.54638563 189.664551,4.76416016 C189.431151,4.98193468 189.130861,5.09082031 188.763672,5.09082031 C188.648437,5.09082031 188.54004,5.08203134 188.438477,5.06445312 C188.377929,5.05468745 188.252442,5.01904328 188.062012,4.95751953 C187.871581,4.89599579 187.750977,4.86523438 187.700195,4.86523438 C187.651367,4.86523438 187.612793,4.87988267 187.584473,4.90917969 C187.556152,4.93847671 187.535156,4.99902298 187.521484,5.09082031 L187.413086,5.09082031 L187.413086,3.72851562 L187.521484,3.72851562 C187.572266,4.0136733 187.640625,4.22705007 187.726562,4.36865234 C187.8125,4.51025461 187.943847,4.62792922 188.120605,4.72167969 C188.297364,4.81543016 188.49121,4.86230469 188.702148,4.86230469 C188.94629,4.86230469 189.139159,4.79785221 189.280762,4.66894531 C189.422364,4.54003842 189.493164,4.38769619 189.493164,4.21191406 C189.493164,4.11425732 189.466309,4.0156255 189.412598,3.91601562 C189.358886,3.81640575 189.275391,3.72363324 189.162109,3.63769531 C189.085937,3.57910127 188.877931,3.4545908 188.538086,3.26416016 C188.19824,3.07372952 187.956544,2.92187557 187.812988,2.80859375 C187.669433,2.69531193 187.560547,2.57031318 187.486328,2.43359375 C187.412109,2.29687432 187.375,2.1464852 187.375,1.98242188 C187.375,1.6972642 187.484374,1.45166119 187.703125,1.24560547 C187.921876,1.03954975 188.200194,0.936523438 188.538086,0.936523438 C188.749024,0.936523438 188.972655,0.988280732 189.208984,1.09179688 C189.31836,1.14062524 189.395508,1.16503906 189.44043,1.16503906 C189.491211,1.16503906 189.532715,1.1499025 189.564941,1.11962891 C189.597168,1.08935532 189.623047,1.02832077 189.642578,0.936523438 L189.750977,0.936523438 Z M192.791992,5 L191.256836,1.65722656 L191.256836,4.31152344 C191.256836,4.55566528 191.283203,4.70800751 191.335938,4.76855469 C191.408203,4.85058635 191.52246,4.89160156 191.678711,4.89160156 L191.819336,4.89160156 L191.819336,5 L190.436523,5 L190.436523,4.89160156 L190.577148,4.89160156 C190.745118,4.89160156 190.864257,4.84082082 190.93457,4.73925781 C190.977539,4.6767575 190.999023,4.5341808 190.999023,4.31152344 L190.999023,1.71582031 C190.999023,1.54003818 190.979492,1.41308633 190.94043,1.33496094 C190.913086,1.27832003 190.862793,1.23095722 190.789551,1.19287109 C190.716308,1.15478497 190.598634,1.13574219 190.436523,1.13574219 L190.436523,1.02734375 L191.561523,1.02734375 L193.00293,4.13574219 L194.420898,1.02734375 L195.545898,1.02734375 L195.545898,1.13574219 L195.408203,1.13574219 C195.23828,1.13574219 195.118164,1.18652293 195.047852,1.28808594 C195.004883,1.35058625 194.983398,1.49316295 194.983398,1.71582031 L194.983398,4.31152344 C194.983398,4.55566528 195.010742,4.70800751 195.06543,4.76855469 C195.137696,4.85058635 195.251952,4.89160156 195.408203,4.89160156 L195.545898,4.89160156 L195.545898,5 L193.858398,5 L193.858398,4.89160156 L193.999023,4.89160156 C194.168946,4.89160156 194.288086,4.84082082 194.356445,4.73925781 C194.399414,4.6767575 194.420898,4.5341808 194.420898,4.31152344 L194.420898,1.65722656 L192.888672,5 L192.791992,5 Z" id="SM" fill="#000000"></path>
                <path d="M0.84765625,39.3476562 L0.84765625,26.9550781 C0.84765625,25.9003854 1.08495856,25.1093776 1.55957031,24.5820312 C2.03418206,24.0546849 2.65819926,23.7910156 3.43164062,23.7910156 C4.24023842,23.7910156 4.88183356,24.0546849 5.35644531,24.5820312 C5.83105706,25.1093776 6.06835938,25.9003854 6.06835938,26.9550781 L6.06835938,39.6289062 C6.06835938,41.0703197 6.22949058,42.2744092 6.55175781,43.2412109 C6.87402505,44.2080126 7.4453084,44.9580051 8.265625,45.4912109 C9.0859416,46.0244167 10.2343676,46.2910156 11.7109375,46.2910156 C13.7500102,46.2910156 15.191402,45.7490289 16.0351562,44.6650391 C16.8789105,43.5810493 17.3007812,41.937511 17.3007812,39.734375 L17.3007812,26.9550781 C17.3007812,25.8886665 17.5351539,25.0947292 18.0039062,24.5732422 C18.4726586,24.0517552 19.0996054,23.7910156 19.8847656,23.7910156 C20.6699258,23.7910156 21.3056616,24.0517552 21.7919922,24.5732422 C22.2783227,25.0947292 22.5214844,25.8886665 22.5214844,26.9550781 L22.5214844,39.3476562 C22.5214844,41.3632913 22.3251973,43.0449151 21.9326172,44.3925781 C21.5400371,45.7402411 20.7988336,46.923823 19.7089844,47.9433594 C18.7714797,48.8105512 17.6816468,49.4433574 16.4394531,49.8417969 C15.1972594,50.2402364 13.7441489,50.4394531 12.0800781,50.4394531 C10.0995995,50.4394531 8.3945384,50.2255881 6.96484375,49.7978516 C5.5351491,49.370115 4.36914514,48.7080123 3.46679688,47.8115234 C2.56444861,46.9150346 1.90234586,45.7666086 1.48046875,44.3662109 C1.05859164,42.9658133 0.84765625,41.2929785 0.84765625,39.3476562 Z M27.2148438,44.9902344 L32.9804688,36.5703125 L28.1289062,29.0820312 C27.6718727,28.3554651 27.3291027,27.7314479 27.1005859,27.2099609 C26.8720692,26.688474 26.7578125,26.1875024 26.7578125,25.7070312 C26.7578125,25.2148413 26.9775369,24.7724629 27.4169922,24.3798828 C27.8564475,23.9873027 28.392575,23.7910156 29.0253906,23.7910156 C29.7519568,23.7910156 30.3173808,24.0048807 30.7216797,24.4326172 C31.1259786,24.8603537 31.6855433,25.6542911 32.4003906,26.8144531 L36.2675781,33.0722656 L40.3984375,26.8144531 C40.7382829,26.2871067 41.0283191,25.8359394 41.2685547,25.4609375 C41.5087903,25.0859356 41.7402333,24.7753919 41.9628906,24.5292969 C42.185548,24.2832019 42.4345689,24.0986334 42.7099609,23.9755859 C42.9853529,23.8525384 43.3046857,23.7910156 43.6679688,23.7910156 C44.324222,23.7910156 44.8603495,23.9873027 45.2763672,24.3798828 C45.6923849,24.7724629 45.9003906,25.2382786 45.9003906,25.7773438 C45.9003906,26.5625039 45.4492233,27.6288995 44.546875,28.9765625 L39.4667969,36.5703125 L44.9335938,44.9902344 C45.4257837,45.7285193 45.783202,46.3408179 46.0058594,46.8271484 C46.2285167,47.313479 46.3398438,47.7734353 46.3398438,48.2070312 C46.3398438,48.6171896 46.2402354,48.9921858 46.0410156,49.3320312 C45.8417959,49.6718767 45.5605487,49.9414053 45.1972656,50.140625 C44.8339826,50.3398447 44.4238304,50.4394531 43.9667969,50.4394531 C43.4746069,50.4394531 43.0585954,50.3369151 42.71875,50.1318359 C42.3789046,49.9267568 42.1035167,49.6718765 41.8925781,49.3671875 C41.6816396,49.0624985 41.2890654,48.4707075 40.7148438,47.5917969 L36.1796875,40.4550781 L31.3632812,47.8027344 C30.9882794,48.3886748 30.7216805,48.798827 30.5634766,49.0332031 C30.4052726,49.2675793 30.2148449,49.4960926 29.9921875,49.71875 C29.7695301,49.9414074 29.5058609,50.1171869 29.2011719,50.2460938 C28.8964829,50.3750006 28.5390646,50.4394531 28.1289062,50.4394531 C27.4960906,50.4394531 26.9716818,50.2460957 26.5556641,49.859375 C26.1396464,49.4726543 25.9316406,48.9101599 25.9316406,48.171875 C25.9316406,47.3046832 26.3593707,46.2441469 27.2148438,44.9902344 Z" id="UX" fill="#006666"></path>
                <path d="M64.9296875,44.1640625 C64.9296875,45.4882879 64.6074251,46.6220656 63.9628906,47.5654297 C63.3183562,48.5087938 62.3662172,49.2236304 61.1064453,49.7099609 C59.8466734,50.1962915 58.3144621,50.4394531 56.5097656,50.4394531 C54.7871008,50.4394531 53.310553,50.1757839 52.0800781,49.6484375 C50.8496032,49.1210911 49.9414092,48.461918 49.3554688,47.6708984 C48.7695283,46.8798789 48.4765625,46.0859415 48.4765625,45.2890625 C48.4765625,44.7617161 48.6640606,44.3105488 49.0390625,43.9355469 C49.4140644,43.560545 49.888669,43.3730469 50.4628906,43.3730469 C50.9667994,43.3730469 51.3535143,43.4960925 51.6230469,43.7421875 C51.8925795,43.9882825 52.1503894,44.3339821 52.3964844,44.7792969 C52.8886743,45.6347699 53.4775356,46.2734354 54.1630859,46.6953125 C54.8486362,47.1171896 55.7831972,47.328125 56.9667969,47.328125 C57.9277392,47.328125 58.7158172,47.11426 59.3310547,46.6865234 C59.9462921,46.2587869 60.2539062,45.769534 60.2539062,45.21875 C60.2539062,44.3749958 59.9345735,43.7597676 59.2958984,43.3730469 C58.6572234,42.9863262 57.6054761,42.6171893 56.140625,42.265625 C54.488273,41.8554667 53.1435599,41.4248069 52.1064453,40.9736328 C51.0693308,40.5224587 50.2402375,39.9277381 49.6191406,39.1894531 C48.9980438,38.4511682 48.6875,37.5429741 48.6875,36.4648438 C48.6875,35.5039014 48.9746065,34.5957074 49.5488281,33.7402344 C50.1230497,32.8847613 50.969721,32.202151 52.0888672,31.6923828 C53.2080134,31.1826146 54.5585858,30.9277344 56.140625,30.9277344 C57.3828187,30.9277344 58.4990185,31.0566393 59.4892578,31.3144531 C60.4794971,31.5722669 61.3056608,31.9179666 61.9677734,32.3515625 C62.6298861,32.7851584 63.1337873,33.2656224 63.4794922,33.7929688 C63.825197,34.3203151 63.9980469,34.835935 63.9980469,35.3398438 C63.9980469,35.8906278 63.8134784,36.3417951 63.4443359,36.6933594 C63.0751935,37.0449236 62.5507846,37.2207031 61.8710938,37.2207031 C61.3789038,37.2207031 60.9599627,37.0800795 60.6142578,36.7988281 C60.268553,36.5175767 59.8730491,36.0957059 59.4277344,35.5332031 C59.0644513,35.0644508 58.6367212,34.6894545 58.1445312,34.4082031 C57.6523413,34.1269517 56.9843792,33.9863281 56.140625,33.9863281 C55.2734332,33.9863281 54.5527372,34.1708966 53.9785156,34.5400391 C53.404294,34.9091815 53.1171875,35.3691379 53.1171875,35.9199219 C53.1171875,36.4238306 53.3281229,36.8369125 53.75,37.1591797 C54.1718771,37.4814469 54.7402308,37.7480458 55.4550781,37.9589844 C56.1699254,38.1699229 57.1542906,38.4277329 58.4082031,38.7324219 C59.8964918,39.0957049 61.1123,39.5292944 62.0556641,40.0332031 C62.9990282,40.5371119 63.7138648,41.1318325 64.2001953,41.8173828 C64.6865259,42.5029331 64.9296875,43.2851519 64.9296875,44.1640625 Z M82.3847656,41.8613281 L72.9980469,41.8613281 C73.0097657,42.9511773 73.22949,43.9121052 73.6572266,44.7441406 C74.0849631,45.576176 74.6533168,46.2031229 75.3623047,46.625 C76.0712926,47.0468771 76.8535113,47.2578125 77.7089844,47.2578125 C78.283206,47.2578125 78.8076148,47.1904304 79.2822266,47.0556641 C79.7568383,46.9208978 80.2167946,46.7099624 80.6621094,46.4228516 C81.1074241,46.1357408 81.5175762,45.8281266 81.8925781,45.5 C82.26758,45.1718734 82.7539033,44.7265653 83.3515625,44.1640625 C83.5976575,43.9531239 83.9492165,43.8476562 84.40625,43.8476562 C84.89844,43.8476562 85.2968735,43.9824205 85.6015625,44.2519531 C85.9062515,44.5214857 86.0585938,44.9023413 86.0585938,45.3945312 C86.0585938,45.8281272 85.8886736,46.334958 85.5488281,46.9150391 C85.2089827,47.4951201 84.6962925,48.0517551 84.0107422,48.5849609 C83.3251919,49.1181667 82.4638724,49.5605451 81.4267578,49.9121094 C80.3896433,50.2636736 79.1972724,50.4394531 77.8496094,50.4394531 C74.7675627,50.4394531 72.3711023,49.5605557 70.6601562,47.8027344 C68.9492102,46.0449131 68.09375,43.6601713 68.09375,40.6484375 C68.09375,39.2304617 68.3046854,37.9150451 68.7265625,36.7021484 C69.1484396,35.4892517 69.7636678,34.4492231 70.5722656,33.5820312 C71.3808634,32.7148394 72.3769472,32.049807 73.5605469,31.5869141 C74.7441465,31.1240211 76.0566334,30.8925781 77.4980469,30.8925781 C79.3730562,30.8925781 80.9814386,31.288082 82.3232422,32.0791016 C83.6650458,32.8701211 84.6699185,33.8925719 85.3378906,35.1464844 C86.0058627,36.4003969 86.3398438,37.6777279 86.3398438,38.9785156 C86.3398438,40.1855529 85.9941441,40.9677717 85.3027344,41.3251953 C84.6113247,41.682619 83.6386781,41.8613281 82.3847656,41.8613281 Z M72.9980469,39.1367188 L81.6992188,39.1367188 C81.5820307,37.4960855 81.1396523,36.2685588 80.3720703,35.4541016 C79.6044883,34.6396444 78.5937563,34.2324219 77.3398438,34.2324219 C76.1445253,34.2324219 75.1630898,34.6455037 74.3955078,35.4716797 C73.6279258,36.2978557 73.1621102,37.5195232 72.9980469,39.1367188 Z M90.3828125,47.5214844 L90.3828125,26.7089844 C90.3828125,25.7480421 90.5966775,25.0214868 91.0244141,24.5292969 C91.4521506,24.0371069 92.0292932,23.7910156 92.7558594,23.7910156 C93.4824255,23.7910156 94.0683571,24.0341773 94.5136719,24.5205078 C94.9589866,25.0068384 95.1816406,25.7363233 95.1816406,26.7089844 L95.1816406,47.5214844 C95.1816406,48.4941455 94.9560569,49.2236304 94.5048828,49.7099609 C94.0537087,50.1962915 93.4707067,50.4394531 92.7558594,50.4394531 C92.0527309,50.4394531 91.4814475,50.1875025 91.0419922,49.6835938 C90.6025369,49.179685 90.3828125,48.4589891 90.3828125,47.5214844 Z M100.138672,47.5214844 L100.138672,26.7089844 C100.138672,25.7480421 100.352537,25.0214868 100.780273,24.5292969 C101.20801,24.0371069 101.785153,23.7910156 102.511719,23.7910156 C103.238285,23.7910156 103.824217,24.0341773 104.269531,24.5205078 C104.714846,25.0068384 104.9375,25.7363233 104.9375,26.7089844 L104.9375,47.5214844 C104.9375,48.4941455 104.711916,49.2236304 104.260742,49.7099609 C103.809568,50.1962915 103.226566,50.4394531 102.511719,50.4394531 C101.80859,50.4394531 101.237307,50.1875025 100.797852,49.6835938 C100.358396,49.179685 100.138672,48.4589891 100.138672,47.5214844 Z M125.345703,44.1640625 C125.345703,45.4882879 125.023441,46.6220656 124.378906,47.5654297 C123.734372,48.5087938 122.782233,49.2236304 121.522461,49.7099609 C120.262689,50.1962915 118.730478,50.4394531 116.925781,50.4394531 C115.203116,50.4394531 113.726569,50.1757839 112.496094,49.6484375 C111.265619,49.1210911 110.357425,48.461918 109.771484,47.6708984 C109.185544,46.8798789 108.892578,46.0859415 108.892578,45.2890625 C108.892578,44.7617161 109.080076,44.3105488 109.455078,43.9355469 C109.83008,43.560545 110.304685,43.3730469 110.878906,43.3730469 C111.382815,43.3730469 111.76953,43.4960925 112.039062,43.7421875 C112.308595,43.9882825 112.566405,44.3339821 112.8125,44.7792969 C113.30469,45.6347699 113.893551,46.2734354 114.579102,46.6953125 C115.264652,47.1171896 116.199213,47.328125 117.382812,47.328125 C118.343755,47.328125 119.131833,47.11426 119.74707,46.6865234 C120.362308,46.2587869 120.669922,45.769534 120.669922,45.21875 C120.669922,44.3749958 120.350589,43.7597676 119.711914,43.3730469 C119.073239,42.9863262 118.021492,42.6171893 116.556641,42.265625 C114.904289,41.8554667 113.559575,41.4248069 112.522461,40.9736328 C111.485346,40.5224587 110.656253,39.9277381 110.035156,39.1894531 C109.414059,38.4511682 109.103516,37.5429741 109.103516,36.4648438 C109.103516,35.5039014 109.390622,34.5957074 109.964844,33.7402344 C110.539065,32.8847613 111.385737,32.202151 112.504883,31.6923828 C113.624029,31.1826146 114.974601,30.9277344 116.556641,30.9277344 C117.798834,30.9277344 118.915034,31.0566393 119.905273,31.3144531 C120.895513,31.5722669 121.721676,31.9179666 122.383789,32.3515625 C123.045902,32.7851584 123.549803,33.2656224 123.895508,33.7929688 C124.241213,34.3203151 124.414062,34.835935 124.414062,35.3398438 C124.414062,35.8906278 124.229494,36.3417951 123.860352,36.6933594 C123.491209,37.0449236 122.9668,37.2207031 122.287109,37.2207031 C121.794919,37.2207031 121.375978,37.0800795 121.030273,36.7988281 C120.684569,36.5175767 120.289065,36.0957059 119.84375,35.5332031 C119.480467,35.0644508 119.052737,34.6894545 118.560547,34.4082031 C118.068357,34.1269517 117.400395,33.9863281 116.556641,33.9863281 C115.689449,33.9863281 114.968753,34.1708966 114.394531,34.5400391 C113.82031,34.9091815 113.533203,35.3691379 113.533203,35.9199219 C113.533203,36.4238306 113.744139,36.8369125 114.166016,37.1591797 C114.587893,37.4814469 115.156246,37.7480458 115.871094,37.9589844 C116.585941,38.1699229 117.570306,38.4277329 118.824219,38.7324219 C120.312507,39.0957049 121.528316,39.5292944 122.47168,40.0332031 C123.415044,40.5371119 124.12988,41.1318325 124.616211,41.8173828 C125.102541,42.5029331 125.345703,43.2851519 125.345703,44.1640625 Z" id="sells" fill="#006666"></path>
            </g>
        </g>
    </g>
</svg>