<?xml version="1.0" encoding="UTF-8"?>
<svg width="400px" height="97px" viewBox="0 0 400 97" version="1.1" xmlns="http://www.w3.org/2000/svg" xmlns:xlink="http://www.w3.org/1999/xlink">
    <!-- Generator: Sketch 49.3 (51167) - http://www.bohemiancoding.com/sketch -->
    <title>Group 5</title>
    <desc>Created with Sketch.</desc>
    <defs></defs>
    <g id="Page-1" stroke="none" stroke-width="1" fill="none" fill-rule="evenodd">
        <g id="Group-5" transform="translate(-5.000000, 0.000000)">
            <g id="Group-2" transform="translate(0.000000, 5.000000)">
                <text id="UX" fill="#006666" font-family="ArialRoundedMTBold, Arial Rounded MT Bold" font-size="72" font-weight="normal">
                    <tspan x="0" y="88.7995169">UX</tspan>
                </text>
                <path d="" id="Path" stroke="#979797" stroke-width="0.5"></path>
                <g id="Group" transform="translate(269.000000, 0.000000)">
                    <path d="M117.420408,0.134119876 C111.853061,0.314212855 101.472237,0.834481459 99.7314286,1.02078017 C98.2004082,1.18466225 97.8153755,1.35740966 97.3208939,2.10235123 C96.8500735,2.81157814 96.7983224,3.41391444 97.1579224,4.00206619 C97.4972776,4.55728955 100.022449,7.21967674 102.439184,9.57025739 L104.526939,11.600926 L82.5359184,33.5679634 C70.4395918,45.6510371 60.3599102,55.6660811 60.1336735,55.8262904 L59.722449,56.11758 L55.3887755,51.8368889 C53.0035469,49.4807358 47.4995918,44.0219682 43.1469388,39.695304 C34.5681633,31.1678635 32.5164694,29.2304075 31.6326531,28.8220955 C31.186,28.6157864 30.8165306,28.5590483 29.9181633,28.5590483 C28.8932653,28.5590483 28.7213102,28.5938764 28.2795918,28.8904852 C27.0627469,29.7077426 8.85676327,47.7081751 3.00877143,53.8759163 C0.703130612,56.3075515 0.343277551,56.7427129 0.181065306,57.2954033 C-0.0680734694,58.1448292 -0.0501061224,58.8405048 0.245595918,59.7903623 C0.730714286,61.3481285 2.86364082,63.6166415 4.22612245,64.0238137 C4.94734694,64.239368 6.55643673,64.27065 7.22489796,64.0821983 C7.88032653,63.8972927 11.0714286,60.8535694 21.295102,50.6615986 L30.1269388,41.857053 L38.3134694,50.1144807 C47.0023265,58.8784991 54.4776286,66.2538258 56.5212245,68.0785653 C58.0269388,69.4230569 58.5748163,69.696236 59.7857143,69.7064944 C61.2061469,69.7185259 61.6204082,69.4439538 64.9734694,66.2692768 C66.5750939,64.7527977 76.2473469,55.1708887 86.4836735,44.9599208 C96.72,34.7489529 106.662522,24.848525 108.594898,22.9422244 L112.106122,19.4784107 L112.454082,19.7317061 C112.645522,19.8710185 114.250816,21.3924369 116.022245,23.1131987 C117.793673,24.8339605 119.478682,26.3781755 119.767551,26.5453504 C120.251404,26.825495 120.343265,26.8385398 120.937959,26.7115121 C121.671837,26.5549756 122.145441,26.2286046 122.428743,25.6841463 C122.98978,24.606248 123.240943,21.5301029 123.811722,8.75135359 C124.117167,1.91237973 124.084396,1.36133574 123.325339,0.569914489 C122.932461,0.160335943 122.899184,0.150837368 121.659184,0.0949857481 C120.964657,0.0637037751 119.052653,0.0813078004 117.420408,0.134119876" id="Fill-1" fill="#006666"></path>
                    <polyline id="Fill-2" fill="#9B9B9B" points="105.115306 33.6566168 98.0612245 40.717224 98.0612245 91.0596705 116.028571 91.0596705 116.028571 30.4587632 112.169388 26.5960095 105.115306 33.6566168"></polyline>
                    <path d="M84.5540816,54.2368622 L75.6653061,63.1338606 L75.6653061,91.0596705 L93.6326531,91.0596705 L93.62,69.2446104 C93.6130408,57.2510766 93.5702735,46.9591808 93.525102,46.384707 L93.4428571,45.3398638 L84.5540816,54.2368622" id="Fill-3" fill="#9B9B9B"></path>
                    <polyline id="Fill-4" fill="#9B9B9B" points="31.2530612 70.7643824 31.2530612 91.0596705 49.2204082 91.0596705 49.2204082 68.4530625 31.2530612 50.4690942 31.2530612 70.7643824"></polyline>
                    <path d="M23.152951,56.1809038 C18.8014367,60.5502482 13.0179755,66.1666922 11.6028571,67.3975808 C10.9702041,67.9478649 10.1219429,68.5464018 9.66693878,68.7633493 L8.85714286,69.1496246 L8.92040816,91.3762897 L17.144898,91.3382954 C21.6746939,91.3173985 25.6535755,91.2605337 26.0020408,91.2116477 L26.6346939,91.1229944 L26.6663265,71.9675352 C26.6837878,61.4304495 26.6553184,52.812076 26.6030612,52.812076 C26.5509306,52.812076 24.9946041,54.3318479 23.152951,56.1809038" id="Fill-5" fill="#9B9B9B"></path>
                    <path d="M68.7946939,69.9822064 C65.2265306,73.4306956 63.9874163,74.2550453 61.6330612,74.7465649 C59.0901755,75.2774719 56.7616327,74.7492245 53.9273469,72.9987004 L53.3959184,72.6704297 L53.3959184,91.0596705 L71.2367347,91.0596705 L71.2367347,79.4080854 C71.2367347,72.9997136 71.2054816,67.7565003 71.1671429,67.7565003 C71.1289306,67.7565003 70.06,68.7592965 68.7946939,69.9822064" id="Fill-6" fill="#9B9B9B"></path>
                </g>
                <text id="sells" fill="#006666" font-family="ArialRoundedMTBold, Arial Rounded MT Bold" font-size="72" font-weight="normal">
                    <tspan x="102.5" y="88.7995169">sells</tspan>
                </text>
            </g>
            <text id="SM" font-family="TimesNewRomanPSMT, Times New Roman" font-size="8" font-weight="normal" fill="#000000">
                <tspan x="393" y="7">SM</tspan>
            </text>
        </g>
    </g>
</svg>