<?xml version="1.0" encoding="UTF-8"?>
<svg width="759px" height="181px" viewBox="0 0 759 181" version="1.1" xmlns="http://www.w3.org/2000/svg" xmlns:xlink="http://www.w3.org/1999/xlink">
    <!-- Generator: Sketch 49.3 (51167) - http://www.bohemiancoding.com/sketch -->
    <title>Group 3</title>
    <desc>Created with Sketch.</desc>
    <defs></defs>
    <g id="Page-1" stroke="none" stroke-width="1" fill="none" fill-rule="evenodd">
        <g id="Group-3" transform="translate(-11.000000, -1.000000)">
            <g id="Group-2" transform="translate(0.000000, 7.000000)">
                <text id="UX" fill="#006666" font-family="ArialRoundedMTBold, Arial Rounded MT Bold" font-size="144" font-weight="normal">
                    <tspan x="0" y="172">UX</tspan>
                </text>
                <path d="" id="Path" stroke="#979797"></path>
                <g id="Group" transform="translate(517.000000, 0.000000)">
                    <path d="M225.371429,0.256682825 C214.685714,0.601350416 194.761229,1.59705679 191.42,1.95360111 C188.481429,2.26724377 187.742414,2.59785319 186.793329,4.02354571 C185.889657,5.38088643 185.790329,6.53365651 186.480529,7.65927978 C187.131871,8.72188366 191.978571,13.8172438 196.617143,18.3158587 L200.624286,22.2022161 L158.415714,64.2434211 C135.198571,87.3683864 115.852086,106.535492 115.417857,106.842105 L114.628571,107.399584 L106.310714,99.2070637 C101.732614,94.6977839 91.1685714,84.2506233 82.8142857,75.9701177 C66.3485714,59.6500346 62.4106429,55.9420706 60.7142857,55.1606302 C59.857,54.7657895 59.1478571,54.6572022 57.4235714,54.6572022 C55.4564286,54.6572022 55.1263857,54.7238573 54.2785714,55.2915166 C51.9430143,56.8556094 16.9992714,91.3054017 5.7749,103.109418 C1.34955714,107.763158 0.658871429,108.595983 0.347528571,109.65374 C-0.130657143,111.279398 -0.0961714286,112.610803 0.471385714,114.42867 C1.4025,117.409972 5.49634286,121.751524 8.11142857,122.530783 C9.49571429,122.943317 12.5841286,123.003186 13.8671429,122.642521 C15.1251429,122.288643 21.25,116.46347 40.8728571,96.9577562 L57.8242857,80.1073407 L73.5371429,95.9106648 C90.2141429,112.683518 104.5619,126.79865 108.484286,130.290893 C111.374286,132.864024 112.425857,133.386842 114.75,133.406475 C117.476314,133.429501 118.271429,132.904017 124.707143,126.82822 C127.781229,123.925935 146.345714,105.587777 165.992857,86.0457064 C185.64,66.5036357 204.723229,47.5558864 208.432143,43.9075485 L215.171429,37.2783934 L215.839286,37.7631579 C216.206729,38.0297784 219.287857,40.9415166 222.687857,44.2347645 C226.087857,47.5280125 229.321986,50.4833795 229.876429,50.8033241 C230.805114,51.3394737 230.981429,51.3644391 232.122857,51.1213296 C233.531429,50.8217452 234.440443,50.197126 234.9842,49.1551247 C236.061029,47.0922091 236.5431,41.2049861 237.638629,16.748615 C238.224886,3.6599723 238.161986,2.60536704 236.705086,1.09072022 C235.951014,0.306855956 235.887143,0.288677285 233.507143,0.181786704 C232.1741,0.121918283 228.504286,0.155609418 225.371429,0.256682825" id="Fill-1" fill="#006666"></path>
                    <polyline id="Fill-2" fill="#9B9B9B" points="201.753571 64.4130886 188.214286 77.9259003 188.214286 174.272853 222.7 174.272853 222.7 58.2929363 215.292857 50.900277 201.753571 64.4130886"></polyline>
                    <path d="M162.289286,103.800208 L145.228571,120.827562 L145.228571,174.272853 L179.714286,174.272853 L179.69,132.522507 C179.676643,109.568906 179.594557,89.8719529 179.507857,88.7725069 L179.35,86.7728532 L162.289286,103.800208" id="Fill-3" fill="#9B9B9B"></path>
                    <polyline id="Fill-4" fill="#9B9B9B" points="59.9857143 135.431094 59.9857143 174.272853 94.4714286 174.272853 94.4714286 131.007618 59.9857143 96.5893352 59.9857143 135.431094"></polyline>
                    <path d="M44.4387286,107.520776 C36.0866286,115.882964 24.9861143,126.631891 22.27,128.987604 C21.0557143,130.040755 19.4276,131.186253 18.5542857,131.601454 L17,132.34072 L17.1214286,174.878809 L32.9071429,174.806094 C41.6014286,174.766101 49.2383143,174.657271 49.9071429,174.563712 L51.1214286,174.394044 L51.1821429,137.733726 C51.2156571,117.567521 51.1610143,101.073407 51.0607143,101.073407 C50.9606571,101.073407 47.9735143,103.981994 44.4387286,107.520776" id="Fill-5" fill="#9B9B9B"></path>
                    <path d="M132.041429,133.934141 C125.192857,140.533968 122.814557,142.111634 118.295714,143.05232 C113.415014,144.068386 108.945714,143.05741 103.505714,139.707202 L102.485714,139.078947 L102.485714,174.272853 L136.728571,174.272853 L136.728571,151.973684 C136.728571,139.709141 136.668586,129.674515 136.595,129.674515 C136.521657,129.674515 134.47,131.593698 132.041429,133.934141" id="Fill-6" fill="#9B9B9B"></path>
                </g>
                <text id="sells" fill="#006666" font-family="ArialRoundedMTBold, Arial Rounded MT Bold" font-size="144" font-weight="normal">
                    <tspan x="197" y="172">sells</tspan>
                </text>
            </g>
            <text id="SM" font-family="TimesNewRomanPSMT, Times New Roman" font-size="10" font-weight="normal" fill="#000000">
                <tspan x="755" y="9">SM</tspan>
            </text>
        </g>
    </g>
</svg>